WorkSans-Thin.ufo
<glyph name="less" format="2">
  <advance width="604"/>
  <unicode hex="003C"/>
  <outline>
    <contour>
      <point x="533" y="523" type="line"/>
      <point x="533" y="541" type="line"/>
      <point x="91" y="309" type="line"/>
      <point x="91" y="292" type="line"/>
    </contour>
    <contour>
      <point x="91" y="307" type="line"/>
      <point x="91" y="290" type="line"/>
      <point x="533" y="58" type="line"/>
      <point x="533" y="76" type="line"/>
    </contour>
  </outline>
</glyph>
<glyph name="A" format="2">
  <advance width="586"/>
  <unicode hex="0041"/>
  <anchor x="293" y="660" name="top"/>
  <anchor x="574" y="0" name="ogonek"/>
  <anchor x="293" y="0" name="bottom"/>
  <anchor x="574" y="0" name="bottomC"/>
  <outline>
    <contour>
      <point x="29" y="0" type="line"/>
      <point x="276" y="597" type="line"/>
      <point x="293" y="642" type="line"/>
      <point x="293" y="642" type="line"/>
      <point x="310" y="596" type="line"/>
      <point x="557" y="0" type="line"/>
      <point x="574" y="0" type="line"/>
      <point x="302" y="660" type="line"/>
      <point x="284" y="660" type="line"/>
      <point x="12" y="0" type="line"/>
    </contour>
    <contour>
      <point x="467" y="234" type="line"/>
      <point x="467" y="248" type="line"/>
      <point x="118" y="248" type="line"/>
      <point x="118" y="234" type="line"/>
    </contour>
  </outline>
</glyph>
<glyph name="D" format="2">
  <advance width="684"/>
  <unicode hex="0044"/>
  <anchor x="309" y="0" name="bottom"/>
  <anchor x="309" y="660" name="top"/>
  <anchor x="302" y="0" name="ogonek"/>
  <anchor x="355" y="330" name="center"/>
  <anchor x="266" y="0" name="bottomC"/>
  <outline>
    <contour>
      <point x="108" y="660" type="line"/>
      <point x="108" y="646" type="line"/>
      <point x="302" y="646" type="line" smooth="yes"/>
      <point x="505" y="646"/>
      <point x="611" y="541"/>
      <point x="611" y="340" type="curve" smooth="yes"/>
      <point x="611" y="126"/>
      <point x="505" y="14"/>
      <point x="302" y="14" type="curve" smooth="yes"/>
      <point x="107" y="14" type="line"/>
      <point x="107" y="0" type="line"/>
      <point x="302" y="0" type="line" smooth="yes"/>
      <point x="516" y="0"/>
      <point x="627" y="117"/>
      <point x="627" y="340" type="curve" smooth="yes"/>
      <point x="627" y="550"/>
      <point x="516" y="660"/>
      <point x="302" y="660" type="curve" smooth="yes"/>
    </contour>
    <contour>
      <point x="99" y="660" type="line"/>
      <point x="99" y="0" type="line"/>
      <point x="115" y="0" type="line"/>
      <point x="115" y="660" type="line"/>
    </contour>
  </outline>
</glyph>
<glyph name="L" format="2">
  <advance width="543"/>
  <unicode hex="004C"/>
  <anchor x="465" y="335" name="center"/>
  <anchor x="331" y="0" name="bottom"/>
  <anchor x="107" y="660" name="top"/>
  <anchor x="331" y="0" name="bottomC"/>
  <anchor x="261" y="700" name="topright"/>
  <anchor x="531" y="0" name="ogonek"/>
  <outline>
    <contour>
      <point x="99" y="660" type="line"/>
      <point x="99" y="0" type="line"/>
      <point x="115" y="0" type="line"/>
      <point x="115" y="660" type="line"/>
    </contour>
    <contour>
      <point x="105" y="14" type="line"/>
      <point x="105" y="0" type="line"/>
      <point x="531" y="0" type="line"/>
      <point x="531" y="14" type="line"/>
    </contour>
  </outline>
</glyph>
<glyph name="P" format="2">
  <advance width="561"/>
  <unicode hex="0050"/>
  <anchor x="274" y="660" name="top"/>
  <anchor x="115" y="0" name="ogonek"/>
  <anchor x="107" y="0" name="bottom"/>
  <anchor x="115" y="0" name="bottomC"/>
  <outline>
    <contour>
      <point x="107" y="660" type="line"/>
      <point x="107" y="646" type="line"/>
      <point x="303" y="646" type="line" smooth="yes"/>
      <point x="434" y="646"/>
      <point x="512" y="582"/>
      <point x="512" y="475" type="curve" smooth="yes"/>
      <point x="512" y="368"/>
      <point x="434" y="305"/>
      <point x="303" y="305" type="curve" smooth="yes"/>
      <point x="107" y="305" type="line"/>
      <point x="107" y="291" type="line"/>
      <point x="303" y="291" type="line" smooth="yes"/>
      <point x="444" y="291"/>
      <point x="528" y="359"/>
      <point x="528" y="475" type="curve" smooth="yes"/>
      <point x="528" y="591"/>
      <point x="444" y="660"/>
      <point x="303" y="660" type="curve" smooth="yes"/>
    </contour>
    <contour>
      <point x="99" y="660" type="line"/>
      <point x="99" y="0" type="line"/>
      <point x="115" y="0" type="line"/>
      <point x="115" y="660" type="line"/>
    </contour>
  </outline>
</glyph>
<glyph name="Q" format="2">
  <advance width="714"/>
  <unicode hex="0051"/>
  <anchor x="357" y="660" name="top"/>
  <anchor x="577" y="-191" name="ogonek"/>
  <anchor x="357" y="-210" name="bottom"/>
  <anchor x="513" y="-191" name="bottomC"/>
  <outline>
    <contour>
      <point x="356" y="-4" type="line"/>
      <point x="361" y="-126"/>
      <point x="434" y="-195"/>
      <point x="536" y="-195" type="curve" smooth="yes"/>
      <point x="585" y="-195"/>
      <point x="622" y="-182"/>
      <point x="648" y="-157" type="curve"/>
      <point x="640" y="-144" type="line"/>
      <point x="614" y="-171"/>
      <point x="575" y="-181"/>
      <point x="536" y="-181" type="curve" smooth="yes"/>
      <point x="441" y="-181"/>
      <point x="375" y="-120"/>
      <point x="370" y="-4" type="curve"/>
    </contour>
    <component base="O"/>
  </outline>
</glyph>
<glyph name="a" format="2">
  <advance width="517"/>
  <unicode hex="0061"/>
  <anchor x="242" y="500" name="top"/>
  <anchor x="515" y="-1" name="ogonek"/>
  <anchor x="242" y="0" name="bottom"/>
  <anchor x="465" y="0" name="bottomC"/>
  <outline>
    <contour>
      <point x="56" y="388" type="curve"/>
      <point x="69" y="378" type="line"/>
      <point x="99" y="462"/>
      <point x="157" y="496"/>
      <point x="248" y="496" type="curve" smooth="yes"/>
      <point x="351" y="496"/>
      <point x="407" y="441"/>
      <point x="407" y="348" type="curve" smooth="yes"/>
      <point x="407" y="113" type="line"/>
      <point x="407" y="82" type="line" smooth="yes"/>
      <point x="407" y="4"/>
      <point x="448" y="-10"/>
      <point x="479" y="-10" type="curve" smooth="yes"/>
      <point x="495" y="-10"/>
      <point x="506" y="-7"/>
      <point x="515" y="-1" type="curve"/>
      <point x="516" y="13" type="line"/>
      <point x="507" y="6"/>
      <point x="493" y="4"/>
      <point x="478" y="4" type="curve" smooth="yes"/>
      <point x="445" y="4"/>
      <point x="423" y="27"/>
      <point x="423" y="76" type="curve" smooth="yes"/>
      <point x="423" y="348" type="line" smooth="yes"/>
      <point x="423" y="453"/>
      <point x="361" y="510"/>
      <point x="248" y="510" type="curve" smooth="yes"/>
      <point x="148" y="510"/>
      <point x="87" y="471"/>
    </contour>
    <contour>
      <point x="230" y="253" type="line" smooth="yes"/>
      <point x="100" y="229"/>
      <point x="46" y="187"/>
      <point x="46" y="108" type="curve" smooth="yes"/>
      <point x="46" y="34"/>
      <point x="104" y="-10"/>
      <point x="202" y="-10" type="curve" smooth="yes"/>
      <point x="300" y="-10"/>
      <point x="415" y="37"/>
      <point x="415" y="140" type="curve"/>
      <point x="407" y="151" type="line"/>
      <point x="407" y="47"/>
      <point x="285" y="4"/>
      <point x="207" y="4" type="curve" smooth="yes"/>
      <point x="116" y="4"/>
      <point x="62" y="43"/>
      <point x="62" y="108" type="curve" smooth="yes"/>
      <point x="62" y="175"/>
      <point x="110" y="217"/>
      <point x="241" y="241" type="curve" smooth="yes"/>
      <point x="414" y="273" type="line"/>
      <point x="412" y="287" type="line"/>
    </contour>
  </outline>
</glyph>
<glyph name="g" format="2">
  <advance width="496"/>
  <unicode hex="0067"/>
  <anchor x="253" y="500" name="top"/>
  <anchor x="399" y="-189" name="ogonek"/>
  <anchor x="253" y="-210" name="bottom"/>
  <anchor x="253" y="-210" name="bottomC"/>
  <outline>
    <contour>
      <point x="379" y="470" type="curve"/>
      <point x="392" y="465" type="line"/>
      <point x="392" y="533"/>
      <point x="429" y="578"/>
      <point x="496" y="578" type="curve"/>
      <point x="491" y="592" type="line"/>
      <point x="421" y="592"/>
      <point x="379" y="544"/>
    </contour>
    <component base="gbase" xOffset="-15"/>
  </outline>
</glyph>
<glyph name="h" format="2">
  <advance width="574"/>
  <unicode hex="0068"/>
  <anchor x="93" y="730" name="top"/>
  <anchor x="495" y="0" name="ogonek"/>
  <anchor x="323" y="0" name="bottom"/>
  <anchor x="495" y="0" name="bottomC"/>
  <outline>
    <contour>
      <point x="85" y="730" type="line"/>
      <point x="85" y="0" type="line"/>
      <point x="101" y="0" type="line"/>
      <point x="101" y="730" type="line"/>
    </contour>
    <contour>
      <point x="94" y="318" type="curve"/>
      <point x="101" y="302" type="line"/>
      <point x="101" y="406"/>
      <point x="189" y="497"/>
      <point x="306" y="497" type="curve" smooth="yes"/>
      <point x="412" y="497"/>
      <point x="479" y="435"/>
      <point x="479" y="328" type="curve" smooth="yes"/>
      <point x="479" y="1" type="line"/>
      <point x="495" y="1" type="line"/>
      <point x="495" y="330" type="line" smooth="yes"/>
      <point x="495" y="445"/>
      <point x="424" y="511"/>
      <point x="309" y="511" type="curve" smooth="yes"/>
      <point x="184" y="511"/>
      <point x="94" y="424"/>
    </contour>
  </outline>
</glyph>
<glyph name="q" format="2">
  <advance width="586"/>
  <unicode hex="0071"/>
  <anchor x="283" y="500" name="top"/>
  <anchor x="394" y="21" name="ogonek"/>
  <anchor x="493" y="-210" name="bottom"/>
  <anchor x="274" y="0" name="bottomC"/>
  <outline>
    <contour>
      <point x="485" y="500" type="line"/>
      <point x="485" y="318" type="line"/>
      <point x="485" y="309" type="line"/>
      <point x="485" y="-210" type="line"/>
      <point x="501" y="-210" type="line"/>
      <point x="501" y="399" type="line"/>
      <point x="501" y="500" type="line"/>
    </contour>
    <component base="bowl" yScale="-1" xOffset="-72" yOffset="500"/>
  </outline>
</glyph>
<glyph name="w" format="2">
  <advance width="779"/>
  <unicode hex="0077"/>
  <anchor x="390" y="500" name="top"/>
  <anchor x="584" y="0" name="ogonek"/>
  <anchor x="390" y="0" name="bottom"/>
  <anchor x="584" y="0" name="bottomC"/>
  <outline>
    <contour>
      <point x="381" y="500" type="line"/>
      <point x="568" y="0" type="line"/>
      <point x="584" y="0" type="line"/>
      <point x="398" y="500" type="line"/>
    </contour>
    <contour>
      <point x="29" y="500" type="line"/>
      <point x="195" y="0" type="line"/>
      <point x="211" y="0" type="line"/>
      <point x="46" y="500" type="line"/>
    </contour>
    <contour>
      <point x="381" y="500" type="line"/>
      <point x="195" y="0" type="line"/>
      <point x="211" y="0" type="line"/>
      <point x="398" y="500" type="line"/>
    </contour>
    <contour>
      <point x="733" y="500" type="line"/>
      <point x="568" y="0" type="line"/>
      <point x="584" y="0" type="line"/>
      <point x="750" y="500" type="line"/>
    </contour>
  </outline>
</glyph>
<glyph name="braceleft" format="2">
  <advance width="259"/>
  <unicode hex="007B"/>
  <outline>
    <contour>
      <point x="122" y="628" type="curve" smooth="yes"/>
      <point x="122" y="386" type="line" smooth="yes"/>
      <point x="122" y="327"/>
      <point x="79" y="292"/>
      <point x="8" y="292" type="curve"/>
      <point x="8" y="279" type="line"/>
      <point x="89" y="279"/>
      <point x="138" y="319"/>
      <point x="138" y="386" type="curve" smooth="yes"/>
      <point x="138" y="628" type="line" smooth="yes"/>
      <point x="138" y="689"/>
      <point x="176" y="726"/>
      <point x="239" y="726" type="curve"/>
      <point x="239" y="740" type="line"/>
      <point x="166" y="740"/>
      <point x="122" y="698"/>
    </contour>
    <contour>
      <point x="8" y="279" type="line"/>
      <point x="79" y="279"/>
      <point x="122" y="244"/>
      <point x="122" y="185" type="curve" smooth="yes"/>
      <point x="122" y="-58" type="line" smooth="yes"/>
      <point x="122" y="-128"/>
      <point x="166" y="-170"/>
      <point x="239" y="-170" type="curve"/>
      <point x="239" y="-156" type="line"/>
      <point x="176" y="-156"/>
      <point x="138" y="-119"/>
      <point x="138" y="-58" type="curve" smooth="yes"/>
      <point x="138" y="185" type="line" smooth="yes"/>
      <point x="138" y="252"/>
      <point x="89" y="292"/>
      <point x="8" y="292" type="curve"/>
    </contour>
  </outline>
</glyph>
<glyph name="bar" format="2">
  <advance width="167"/>
  <unicode hex="007C"/>
  <outline>
    <contour>
      <point x="76" y="730" type="line"/>
      <point x="76" y="-168" type="line"/>
      <point x="91" y="-168" type="line"/>
      <point x="91" y="730" type="line"/>
    </contour>
  </outline>
</glyph>
<glyph name="yen" format="2">
  <advance width="568"/>
  <unicode hex="00A5"/>
  <outline>
    <contour>
      <point x="44" y="660" type="line"/>
      <point x="276" y="259" type="line"/>
      <point x="292" y="259" type="line"/>
      <point x="524" y="660" type="line"/>
      <point x="505" y="660" type="line"/>
      <point x="299" y="297" type="line"/>
      <point x="285" y="273" type="line"/>
      <point x="283" y="273" type="line"/>
      <point x="269" y="297" type="line"/>
      <point x="63" y="660" type="line"/>
    </contour>
    <contour>
      <point x="292" y="0" type="line"/>
      <point x="292" y="263" type="line"/>
      <point x="276" y="263" type="line"/>
      <point x="276" y="0" type="line"/>
    </contour>
    <contour>
      <point x="499" y="133" type="line"/>
      <point x="499" y="147" type="line"/>
      <point x="70" y="147" type="line"/>
      <point x="70" y="133" type="line"/>
    </contour>
    <contour>
      <point x="499" y="256" type="line"/>
      <point x="499" y="270" type="line"/>
      <point x="311" y="270" type="line"/>
      <point x="284" y="270" type="line"/>
      <point x="258" y="270" type="line"/>
      <point x="70" y="270" type="line"/>
      <point x="70" y="256" type="line"/>
    </contour>
  </outline>
</glyph>
<glyph name="onesuperior" format="2">
  <advance width="194"/>
  <unicode hex="00B9"/>
  <anchor x="114" y="527" name="_indexring"/>
  <outline>
    <contour>
      <point x="136" y="730" type="line"/>
      <point x="123" y="730" type="line"/>
      <point x="121" y="701"/>
      <point x="120" y="672"/>
      <point x="120" y="643" type="curve" smooth="yes"/>
      <point x="120" y="333" type="line"/>
      <point x="136" y="333" type="line"/>
      <point x="136" y="643" type="line"/>
    </contour>
    <contour>
      <point x="132" y="725" type="curve"/>
      <point x="123" y="730" type="line"/>
      <point x="102" y="691"/>
      <point x="46" y="658"/>
      <point x="11" y="646" type="curve"/>
      <point x="11" y="633" type="line"/>
      <point x="57" y="651"/>
      <point x="110" y="681"/>
    </contour>
  </outline>
</glyph>
<glyph name="ordmasculine" format="2">
  <advance width="354"/>
  <unicode hex="00BA"/>
  <outline>
    <contour>
      <point x="316" y="496" type="curve" smooth="yes"/>
      <point x="316" y="613"/>
      <point x="273" y="665"/>
      <point x="177" y="665" type="curve" smooth="yes"/>
      <point x="81" y="665"/>
      <point x="38" y="613"/>
      <point x="38" y="496" type="curve" smooth="yes"/>
      <point x="38" y="379"/>
      <point x="81" y="327"/>
      <point x="177" y="327" type="curve" smooth="yes"/>
      <point x="273" y="327"/>
      <point x="316" y="379"/>
    </contour>
    <contour>
      <point x="310" y="223" type="line"/>
      <point x="310" y="237" type="line"/>
      <point x="44" y="237" type="line"/>
      <point x="44" y="223" type="line"/>
    </contour>
    <contour>
      <point x="54" y="496" type="curve" smooth="yes"/>
      <point x="54" y="603"/>
      <point x="92" y="651"/>
      <point x="177" y="651" type="curve" smooth="yes"/>
      <point x="262" y="651"/>
      <point x="300" y="603"/>
      <point x="300" y="496" type="curve" smooth="yes"/>
      <point x="300" y="389"/>
      <point x="262" y="341"/>
      <point x="177" y="341" type="curve" smooth="yes"/>
      <point x="92" y="341"/>
      <point x="54" y="389"/>
    </contour>
  </outline>
</glyph>
<glyph name="AE" format="2">
  <advance width="885"/>
  <unicode hex="00C6"/>
  <anchor x="446" y="660" name="top"/>
  <anchor x="855" y="0" name="ogonek"/>
  <anchor x="446" y="0" name="bottom"/>
  <anchor x="454" y="0" name="bottomC"/>
  <outline>
    <contour>
      <point x="412" y="660" type="line"/>
      <point x="-8" y="0" type="line"/>
      <point x="15" y="0" type="line"/>
      <point x="429" y="660" type="line"/>
    </contour>
    <contour>
      <point x="173" y="268" type="line"/>
      <point x="163" y="254" type="line"/>
      <point x="443" y="254" type="line"/>
      <point x="443" y="268" type="line"/>
    </contour>
    <contour>
      <point x="447" y="14" type="line"/>
      <point x="447" y="0" type="line"/>
      <point x="855" y="0" type="line"/>
      <point x="855" y="14" type="line"/>
    </contour>
    <contour>
      <point x="438" y="660" type="line"/>
      <point x="438" y="0" type="line"/>
      <point x="454" y="0" type="line"/>
      <point x="454" y="660" type="line"/>
    </contour>
    <contour>
      <point x="447" y="342" type="line"/>
      <point x="447" y="328" type="line"/>
      <point x="762" y="328" type="line"/>
      <point x="762" y="342" type="line"/>
    </contour>
    <contour>
      <point x="424" y="660" type="line"/>
      <point x="413" y="646" type="line"/>
      <point x="444" y="646" type="line"/>
      <point x="447" y="646" type="line"/>
      <point x="839" y="646" type="line"/>
      <point x="839" y="660" type="line"/>
    </contour>
  </outline>
</glyph>
<glyph name="multiply" format="2">
  <advance width="604"/>
  <unicode hex="00D7"/>
  <outline>
    <contour>
      <point x="124" y="147" type="line"/>
      <point x="467" y="490" type="line"/>
      <point x="480" y="477" type="line"/>
      <point x="137" y="134" type="line"/>
    </contour>
    <contour>
      <point x="124" y="477" type="line"/>
      <point x="137" y="490" type="line"/>
      <point x="480" y="147" type="line"/>
      <point x="467" y="134" type="line"/>
    </contour>
  </outline>
</glyph>
<glyph name="Oslash" format="2">
  <advance width="714"/>
  <unicode hex="00D8"/>
  <anchor x="357" y="660" name="top"/>
  <anchor x="433" y="0" name="ogonek"/>
  <anchor x="357" y="0" name="bottom"/>
  <anchor x="357" y="0" name="bottomC"/>
  <outline>
    <contour>
      <point x="608" y="690" type="line"/>
      <point x="542" y="599" type="line"/>
      <point x="555" y="590" type="line"/>
      <point x="628" y="690" type="line"/>
    </contour>
    <contour>
      <point x="160" y="71" type="line"/>
      <point x="170" y="59" type="line"/>
      <point x="555" y="590" type="line"/>
      <point x="542" y="599" type="line"/>
    </contour>
    <contour>
      <point x="106" y="-30" type="line"/>
      <point x="170" y="59" type="line"/>
      <point x="160" y="71" type="line"/>
      <point x="86" y="-30" type="line"/>
    </contour>
    <component base="O"/>
  </outline>
</glyph>
<glyph name="ae" format="2">
  <advance width="866"/>
  <unicode hex="00E6"/>
  <anchor x="415" y="500" name="top"/>
  <anchor x="678" y="-1" name="ogonek"/>
  <anchor x="415" y="0" name="bottom"/>
  <anchor x="589" y="0" name="bottomC"/>
  <outline>
    <contour>
      <point x="809" y="109" type="curve"/>
      <point x="796" y="116" type="line"/>
      <point x="767" y="46"/>
      <point x="711" y="4"/>
      <point x="616" y="4" type="curve" smooth="yes"/>
      <point x="497" y="4"/>
      <point x="422" y="96"/>
      <point x="422" y="250" type="curve" smooth="yes"/>
      <point x="422" y="404"/>
      <point x="496" y="496"/>
      <point x="615" y="496" type="curve" smooth="yes"/>
      <point x="741" y="496"/>
      <point x="803" y="420"/>
      <point x="804" y="265" type="curve"/>
      <point x="811" y="272" type="line"/>
      <point x="418" y="272" type="line"/>
      <point x="418" y="257" type="line"/>
      <point x="818" y="257" type="line"/>
      <point x="818" y="259"/>
      <point x="818" y="262"/>
      <point x="818" y="264" type="curve" smooth="yes"/>
      <point x="818" y="429"/>
      <point x="747" y="510"/>
      <point x="615" y="510" type="curve" smooth="yes"/>
      <point x="487" y="510"/>
      <point x="407" y="413"/>
      <point x="407" y="250" type="curve" smooth="yes"/>
      <point x="407" y="87"/>
      <point x="488" y="-10"/>
      <point x="616" y="-10" type="curve" smooth="yes"/>
      <point x="717" y="-10"/>
      <point x="778" y="35"/>
    </contour>
    <contour>
      <point x="418" y="180" type="curve"/>
      <point x="407" y="188" type="line"/>
      <point x="407" y="44"/>
      <point x="285" y="4"/>
      <point x="207" y="4" type="curve" smooth="yes"/>
      <point x="125" y="4"/>
      <point x="62" y="38"/>
      <point x="62" y="108" type="curve" smooth="yes"/>
      <point x="62" y="175"/>
      <point x="109" y="229"/>
      <point x="241" y="241" type="curve" smooth="yes"/>
      <point x="414" y="257" type="line"/>
      <point x="412" y="271" type="line"/>
      <point x="230" y="253" type="line" smooth="yes"/>
      <point x="99" y="240"/>
      <point x="46" y="187"/>
      <point x="46" y="108" type="curve" smooth="yes"/>
      <point x="46" y="30"/>
      <point x="110" y="-10"/>
      <point x="202" y="-10" type="curve" smooth="yes"/>
      <point x="300" y="-10"/>
      <point x="418" y="37"/>
    </contour>
    <contour>
      <point x="423" y="178" type="line"/>
      <point x="423" y="351" type="line" smooth="yes"/>
      <point x="423" y="453"/>
      <point x="361" y="510"/>
      <point x="248" y="510" type="curve" smooth="yes"/>
      <point x="148" y="510"/>
      <point x="87" y="471"/>
      <point x="56" y="388" type="curve"/>
      <point x="69" y="378" type="line"/>
      <point x="100" y="459"/>
      <point x="157" y="496"/>
      <point x="248" y="496" type="curve" smooth="yes"/>
      <point x="351" y="496"/>
      <point x="407" y="441"/>
      <point x="407" y="345" type="curve" smooth="yes"/>
      <point x="407" y="172" type="line"/>
    </contour>
  </outline>
</glyph>
<glyph name="divide" format="2">
  <advance width="604"/>
  <unicode hex="00F7"/>
  <outline>
    <contour>
      <point x="77" y="323" type="line"/>
      <point x="77" y="309" type="line"/>
      <point x="527" y="309" type="line"/>
      <point x="527" y="323" type="line"/>
    </contour>
    <component base="period" xOffset="218" yOffset="115"/>
    <component base="period" xOffset="218" yOffset="485"/>
  </outline>
</glyph>
<glyph name="aogonek" format="2">
  <advance width="517"/>
  <unicode hex="0105"/>
  <anchor x="242" y="500" name="top"/>
  <anchor x="484" y="-197" name="ogonek"/>
  <anchor x="242" y="-210" name="bottom"/>
  <anchor x="434" y="-197" name="bottomC"/>
  <outline>
    <contour>
      <point x="56" y="388" type="curve"/>
      <point x="69" y="378" type="line"/>
      <point x="100" y="459"/>
      <point x="157" y="496"/>
      <point x="248" y="496" type="curve" smooth="yes"/>
      <point x="351" y="496"/>
      <point x="407" y="441"/>
      <point x="407" y="348" type="curve" smooth="yes"/>
      <point x="407" y="112" type="line"/>
      <point x="407" y="82" type="line" smooth="yes"/>
      <point x="407" y="4"/>
      <point x="448" y="-10"/>
      <point x="479" y="-10" type="curve" smooth="yes"/>
      <point x="515" y="-1" type="line"/>
      <point x="516" y="13" type="line"/>
      <point x="507" y="6"/>
      <point x="493" y="4"/>
      <point x="478" y="4" type="curve" smooth="yes"/>
      <point x="445" y="4"/>
      <point x="423" y="27"/>
      <point x="423" y="76" type="curve" smooth="yes"/>
      <point x="423" y="348" type="line" smooth="yes"/>
      <point x="423" y="453"/>
      <point x="361" y="510"/>
      <point x="248" y="510" type="curve" smooth="yes"/>
      <point x="148" y="510"/>
      <point x="87" y="471"/>
    </contour>
    <contour>
      <point x="358" y="-126" type="curve" smooth="yes"/>
      <point x="358" y="-174"/>
      <point x="398" y="-202"/>
      <point x="446" y="-202" type="curve" smooth="yes"/>
      <point x="482" y="-202"/>
      <point x="499" y="-196"/>
      <point x="515" y="-185" type="curve"/>
      <point x="509" y="-172" type="line"/>
      <point x="495" y="-183"/>
      <point x="480" y="-188"/>
      <point x="446" y="-188" type="curve" smooth="yes"/>
      <point x="406" y="-188"/>
      <point x="373" y="-165"/>
      <point x="373" y="-126" type="curve" smooth="yes"/>
      <point x="373" y="-73"/>
      <point x="416" y="-43"/>
      <point x="515" y="-1" type="curve"/>
      <point x="509" y="5" type="line"/>
      <point x="401" y="-32"/>
      <point x="358" y="-70"/>
    </contour>
    <contour>
      <point x="230" y="253" type="line" smooth="yes"/>
      <point x="100" y="229"/>
      <point x="46" y="187"/>
      <point x="46" y="108" type="curve" smooth="yes"/>
      <point x="46" y="34"/>
      <point x="104" y="-10"/>
      <point x="202" y="-10" type="curve" smooth="yes"/>
      <point x="300" y="-10"/>
      <point x="415" y="37"/>
      <point x="415" y="140" type="curve"/>
      <point x="407" y="151" type="line"/>
      <point x="407" y="47"/>
      <point x="285" y="4"/>
      <point x="207" y="4" type="curve" smooth="yes"/>
      <point x="116" y="4"/>
      <point x="62" y="43"/>
      <point x="62" y="108" type="curve" smooth="yes"/>
      <point x="62" y="175"/>
      <point x="110" y="217"/>
      <point x="241" y="241" type="curve" smooth="yes"/>
      <point x="414" y="273" type="line"/>
      <point x="412" y="287" type="line"/>
    </contour>
  </outline>
</glyph>
<glyph name="dcroat" format="2">
  <advance width="585"/>
  <unicode hex="0111"/>
  <anchor x="301" y="281" name="center"/>
  <anchor x="283" y="0" name="bottom"/>
  <anchor x="492" y="730" name="top"/>
  <anchor x="283" y="0" name="bottomC"/>
  <anchor x="611" y="730" name="topright"/>
  <anchor x="394" y="21" name="ogonek"/>
  <outline>
    <contour>
      <point x="302" y="606" type="line"/>
      <point x="302" y="594" type="line"/>
      <point x="597" y="594" type="line"/>
      <point x="597" y="606" type="line"/>
    </contour>
    <component base="d"/>
  </outline>
</glyph>
<glyph name="uni0163" format="2">
  <advance width="329"/>
  <unicode hex="0163"/>
  <anchor x="119" y="281" name="center"/>
  <anchor x="220" y="-210" name="bottom"/>
  <anchor x="119" y="730" name="top"/>
  <anchor x="179" y="-197" name="bottomC"/>
  <anchor x="247" y="767" name="topright"/>
  <anchor x="234" y="-197" name="ogonek"/>
  <outline>
    <contour>
      <point x="275" y="-119" type="curve" smooth="yes"/>
      <point x="275" y="-161"/>
      <point x="247" y="-189"/>
      <point x="204" y="-189" type="curve" smooth="yes"/>
      <point x="164" y="-189"/>
      <point x="141" y="-178"/>
      <point x="116" y="-148" type="curve"/>
      <point x="108" y="-160" type="line"/>
      <point x="132" y="-190"/>
      <point x="158" y="-202"/>
      <point x="204" y="-202" type="curve" smooth="yes"/>
      <point x="256" y="-202"/>
      <point x="290" y="-168"/>
      <point x="290" y="-118" type="curve" smooth="yes"/>
      <point x="290" y="-71"/>
      <point x="262" y="-36"/>
      <point x="180" y="8" type="curve"/>
      <point x="163" y="8" type="line"/>
      <point x="253" y="-45"/>
      <point x="275" y="-77"/>
    </contour>
    <component base="t"/>
  </outline>
</glyph>
<glyph name="caron" format="2">
  <advance width="550"/>
  <unicode hex="02C7"/>
  <anchor x="250" y="500" name="_top"/>
  <outline>
    <contour>
      <point x="350" y="725" type="line"/>
      <point x="250" y="596" type="line"/>
      <point x="150" y="725" type="line"/>
      <point x="133" y="725" type="line"/>
      <point x="241" y="583" type="line"/>
      <point x="259" y="583" type="line"/>
      <point x="367" y="725" type="line"/>
    </contour>
  </outline>
</glyph>
<glyph name="dotaccent" format="2">
  <advance width="550"/>
  <unicode hex="02D9"/>
  <anchor x="275" y="500" name="_top"/>
  <outline>
    <contour>
      <point x="253" y="620" type="curve" smooth="yes"/>
      <point x="253" y="607"/>
      <point x="262" y="598"/>
      <point x="275" y="598" type="curve" smooth="yes"/>
      <point x="288" y="598"/>
      <point x="297" y="607"/>
      <point x="297" y="620" type="curve" smooth="yes"/>
      <point x="297" y="633"/>
      <point x="288" y="642"/>
      <point x="275" y="642" type="curve" smooth="yes"/>
      <point x="262" y="642"/>
      <point x="253" y="633"/>
    </contour>
  </outline>
</glyph>
<glyph name="hungarumlaut" format="2">
  <advance width="550"/>
  <unicode hex="02DD"/>
  <anchor x="248" y="500" name="_top"/>
  <outline>
    <contour>
      <point x="381" y="730" type="line"/>
      <point x="296" y="583" type="line"/>
      <point x="311" y="583" type="line"/>
      <point x="399" y="730" type="line"/>
    </contour>
    <contour>
      <point x="250" y="730" type="line"/>
      <point x="165" y="583" type="line"/>
      <point x="180" y="583" type="line"/>
      <point x="268" y="730" type="line"/>
    </contour>
  </outline>
</glyph>
<glyph name="pi" format="2">
  <advance width="678"/>
  <unicode hex="03C0"/>
  <outline>
    <contour>
      <point x="664" y="500" type="line"/>
      <point x="6" y="500" type="line"/>
      <point x="6" y="486" type="line"/>
      <point x="664" y="486" type="line"/>
    </contour>
    <contour>
      <point x="172" y="494" type="line"/>
      <point x="172" y="0" type="line"/>
      <point x="188" y="0" type="line"/>
      <point x="188" y="494" type="line"/>
    </contour>
    <contour>
      <point x="481" y="494" type="line"/>
      <point x="481" y="94" type="line" smooth="yes"/>
      <point x="481" y="23"/>
      <point x="538" y="0"/>
      <point x="606" y="0" type="curve"/>
      <point x="609" y="14" type="line"/>
      <point x="549" y="14"/>
      <point x="497" y="30"/>
      <point x="497" y="94" type="curve" smooth="yes"/>
      <point x="497" y="494" type="line"/>
    </contour>
  </outline>
</glyph>
<glyph name="emdash" format="2">
  <advance width="939"/>
  <unicode hex="2014"/>
  <outline>
    <contour>
      <point x="68" y="278" type="line"/>
      <point x="68" y="262" type="line"/>
      <point x="871" y="262" type="line"/>
      <point x="871" y="278" type="line"/>
    </contour>
  </outline>
</glyph>
<glyph name="fraction" format="2">
  <advance width="202"/>
  <unicode hex="2044"/>
  <outline>
    <contour>
      <point x="-122" y="0" type="line"/>
      <point x="343" y="660" type="line"/>
      <point x="324" y="660" type="line"/>
      <point x="-141" y="0" type="line"/>
    </contour>
  </outline>
</glyph>
<glyph name="fivesuperior" format="2">
  <advance width="329"/>
  <unicode hex="2075"/>
  <anchor x="168" y="533" name="_indexring"/>
  <outline>
    <contour>
      <point x="61" y="536" type="curve"/>
      <point x="60" y="536" type="line"/>
      <point x="61" y="542"/>
      <point x="62" y="547"/>
      <point x="64" y="564" type="curve" smooth="yes"/>
      <point x="78" y="716" type="line"/>
      <point x="280" y="716" type="line"/>
      <point x="280" y="730" type="line"/>
      <point x="65" y="730" type="line"/>
      <point x="45" y="516" type="line"/>
      <point x="61" y="516" type="line"/>
      <point x="82" y="546"/>
      <point x="113" y="564"/>
      <point x="171" y="564" type="curve" smooth="yes"/>
      <point x="236" y="564"/>
      <point x="280" y="519"/>
      <point x="280" y="453" type="curve" smooth="yes"/>
      <point x="280" y="388"/>
      <point x="234" y="342"/>
      <point x="168" y="342" type="curve" smooth="yes"/>
      <point x="101" y="342"/>
      <point x="61" y="373"/>
      <point x="50" y="430" type="curve"/>
      <point x="36" y="425" type="line"/>
      <point x="51" y="359"/>
      <point x="98" y="328"/>
      <point x="168" y="328" type="curve" smooth="yes"/>
      <point x="246" y="328"/>
      <point x="296" y="379"/>
      <point x="296" y="453" type="curve" smooth="yes"/>
      <point x="296" y="527"/>
      <point x="245" y="578"/>
      <point x="172" y="578" type="curve" smooth="yes"/>
      <point x="117" y="578"/>
      <point x="81" y="561"/>
    </contour>
  </outline>
</glyph>
<glyph name="plussuperior" format="2">
  <advance width="330"/>
  <unicode hex="207A"/>
  <outline>
    <contour>
      <point x="295" y="526" type="line"/>
      <point x="295" y="540" type="line"/>
      <point x="35" y="540" type="line"/>
      <point x="35" y="526" type="line"/>
    </contour>
    <contour>
      <point x="173" y="403" type="line"/>
      <point x="173" y="663" type="line"/>
      <point x="157" y="663" type="line"/>
      <point x="157" y="403" type="line"/>
    </contour>
  </outline>
</glyph>
<glyph name="parenleftsuperior" format="2">
  <advance width="190"/>
  <unicode hex="207D"/>
  <outline>
    <contour>
      <point x="74" y="531" type="curve" smooth="yes"/>
      <point x="74" y="417"/>
      <point x="118" y="321"/>
      <point x="190" y="251" type="curve"/>
      <point x="198" y="260" type="line"/>
      <point x="131" y="332"/>
      <point x="90" y="416"/>
      <point x="90" y="531" type="curve" smooth="yes"/>
      <point x="90" y="646"/>
      <point x="131" y="730"/>
      <point x="198" y="802" type="curve"/>
      <point x="190" y="811" type="line"/>
      <point x="118" y="741"/>
      <point x="74" y="645"/>
    </contour>
  </outline>
</glyph>
<glyph name="trademark" format="2">
  <advance width="755"/>
  <unicode hex="2122"/>
  <outline>
    <contour>
      <point x="159" y="660" type="line"/>
      <point x="159" y="330" type="line"/>
      <point x="175" y="330" type="line"/>
      <point x="175" y="660" type="line"/>
    </contour>
    <contour>
      <point x="31" y="660" type="line"/>
      <point x="31" y="646" type="line"/>
      <point x="302" y="646" type="line"/>
      <point x="302" y="660" type="line"/>
    </contour>
    <contour>
      <point x="659" y="660" type="line"/>
      <point x="524" y="356" type="line"/>
      <point x="519" y="342" type="line"/>
      <point x="519" y="342" type="line"/>
      <point x="513" y="356" type="line"/>
      <point x="379" y="660" type="line"/>
      <point x="362" y="660" type="line"/>
      <point x="362" y="330" type="line"/>
      <point x="378" y="330" type="line"/>
      <point x="378" y="599" type="line"/>
      <point x="376" y="633" type="line"/>
      <point x="377" y="633" type="line"/>
      <point x="385" y="609" type="line"/>
      <point x="510" y="330" type="line"/>
      <point x="527" y="330" type="line"/>
      <point x="653" y="609" type="line"/>
      <point x="661" y="633" type="line"/>
      <point x="662" y="633" type="line"/>
      <point x="659" y="599" type="line"/>
      <point x="659" y="330" type="line"/>
      <point x="675" y="330" type="line"/>
      <point x="675" y="660" type="line"/>
    </contour>
  </outline>
</glyph>
<glyph name="radical" format="2">
  <advance width="597"/>
  <unicode hex="221A"/>
  <outline>
    <contour>
      <point x="573" y="818" type="line"/>
      <point x="276" y="50" type="line"/>
      <point x="259" y="0" type="line"/>
      <point x="273" y="0" type="line"/>
      <point x="590" y="818" type="line"/>
    </contour>
    <contour>
      <point x="19" y="351" type="line"/>
      <point x="19" y="337" type="line"/>
      <point x="122" y="337" type="line"/>
      <point x="255" y="0" type="line"/>
      <point x="269" y="0" type="line"/>
      <point x="252" y="52" type="line"/>
      <point x="134" y="351" type="line"/>
    </contour>
  </outline>
</glyph>
<glyph name="infinity" format="2">
  <advance width="866"/>
  <unicode hex="221E"/>
  <outline>
    <contour>
      <point x="427" y="308" type="curve" smooth="yes"/>
      <point x="279" y="127"/>
      <point x="272" y="124"/>
      <point x="209" y="124" type="curve" smooth="yes"/>
      <point x="138" y="124"/>
      <point x="76" y="194"/>
      <point x="76" y="302" type="curve" smooth="yes"/>
      <point x="76" y="411"/>
      <point x="138" y="481"/>
      <point x="209" y="481" type="curve" smooth="yes"/>
      <point x="274" y="481"/>
      <point x="280" y="476"/>
      <point x="431" y="291" type="curve" smooth="yes"/>
      <point x="576" y="115"/>
      <point x="582" y="110"/>
      <point x="661" y="110" type="curve" smooth="yes"/>
      <point x="739" y="110"/>
      <point x="806" y="178"/>
      <point x="806" y="302" type="curve" smooth="yes"/>
      <point x="806" y="427"/>
      <point x="739" y="495"/>
      <point x="661" y="495" type="curve" smooth="yes"/>
      <point x="582" y="495"/>
      <point x="569" y="482"/>
    </contour>
    <contour>
      <point x="60" y="302" type="curve" smooth="yes"/>
      <point x="60" y="178"/>
      <point x="127" y="110"/>
      <point x="206" y="110" type="curve" smooth="yes"/>
      <point x="286" y="110"/>
      <point x="293" y="118"/>
      <point x="436" y="295" type="curve" smooth="yes"/>
      <point x="571" y="462"/>
      <point x="597" y="481"/>
      <point x="658" y="481" type="curve" smooth="yes"/>
      <point x="728" y="481"/>
      <point x="790" y="411"/>
      <point x="790" y="302" type="curve" smooth="yes"/>
      <point x="790" y="194"/>
      <point x="728" y="122"/>
      <point x="657" y="124" type="curve" smooth="yes"/>
      <point x="592" y="125"/>
      <point x="585" y="131"/>
      <point x="432" y="317" type="curve" smooth="yes"/>
      <point x="291" y="490"/>
      <point x="284" y="495"/>
      <point x="206" y="495" type="curve" smooth="yes"/>
      <point x="127" y="495"/>
      <point x="60" y="427"/>
    </contour>
  </outline>
</glyph>
<glyph name="lessequal" format="2">
  <advance width="604"/>
  <unicode hex="2264"/>
  <outline>
    <contour>
      <point x="79" y="381" type="line"/>
      <point x="79" y="364" type="line"/>
      <point x="525" y="602" type="line"/>
      <point x="525" y="620" type="line"/>
    </contour>
    <contour>
      <point x="79" y="0" type="line"/>
      <point x="525" y="0" type="line"/>
      <point x="525" y="14" type="line"/>
      <point x="79" y="14" type="line"/>
    </contour>
    <contour>
      <point x="79" y="379" type="line"/>
      <point x="79" y="362" type="line"/>
      <point x="525" y="113" type="line"/>
      <point x="525" y="131" type="line"/>
    </contour>
  </outline>
</glyph>
<glyph name="blackSmallSquare" format="2">
  <advance width="600"/>
  <unicode hex="25AA"/>
  <outline>
    <contour>
      <point x="95" y="45" type="line"/>
      <point x="505" y="45" type="line"/>
      <point x="505" y="455" type="line"/>
      <point x="95" y="455" type="line"/>
    </contour>
  </outline>
</glyph>
<glyph name="blackCircle" format="2">
  <advance width="600"/>
  <unicode hex="25CF"/>
  <outline>
    <contour>
      <point x="515" y="250" type="curve" smooth="yes"/>
      <point x="515" y="373"/>
      <point x="423" y="465"/>
      <point x="300" y="465" type="curve" smooth="yes"/>
      <point x="177" y="465"/>
      <point x="85" y="373"/>
      <point x="85" y="250" type="curve" smooth="yes"/>
      <point x="85" y="127"/>
      <point x="177" y="35"/>
      <point x="300" y="35" type="curve" smooth="yes"/>
      <point x="423" y="35"/>
      <point x="515" y="127"/>
    </contour>
  </outline>
</glyph>
<glyph name="Adieresis.titl" format="2">
  <advance width="586"/>
  <outline>
    <contour>
      <point x="409" y="640" type="curve" smooth="yes"/>
      <point x="409" y="653"/>
      <point x="400" y="662"/>
      <point x="387" y="662" type="curve" smooth="yes"/>
      <point x="374" y="662"/>
      <point x="365" y="653"/>
      <point x="365" y="640" type="curve" smooth="yes"/>
      <point x="365" y="627"/>
      <point x="374" y="618"/>
      <point x="387" y="618" type="curve" smooth="yes"/>
      <point x="400" y="618"/>
      <point x="409" y="627"/>
    </contour>
    <contour>
      <point x="219" y="640" type="curve" smooth="yes"/>
      <point x="219" y="653"/>
      <point x="210" y="662"/>
      <point x="197" y="662" type="curve" smooth="yes"/>
      <point x="184" y="662"/>
      <point x="175" y="653"/>
      <point x="175" y="640" type="curve" smooth="yes"/>
      <point x="175" y="627"/>
      <point x="184" y="618"/>
      <point x="197" y="618" type="curve" smooth="yes"/>
      <point x="210" y="618"/>
      <point x="219" y="627"/>
    </contour>
    <contour>
      <point x="29" y="0" type="line"/>
      <point x="276" y="597" type="line"/>
      <point x="293" y="642" type="line"/>
      <point x="293" y="642" type="line"/>
      <point x="310" y="596" type="line"/>
      <point x="557" y="0" type="line"/>
      <point x="574" y="0" type="line"/>
      <point x="302" y="660" type="line"/>
      <point x="284" y="660" type="line"/>
      <point x="12" y="0" type="line"/>
    </contour>
    <contour>
      <point x="467" y="234" type="line"/>
      <point x="467" y="248" type="line"/>
      <point x="118" y="248" type="line"/>
      <point x="118" y="234" type="line"/>
    </contour>
  </outline>
</glyph>
<glyph name="Aogonek_j" format="2">
  <advance width="772"/>
  <anchor x="574" y="0" name="bottomC"/>
  <anchor x="293" y="660" name="top"/>
  <anchor x="574" y="0" name="ogonek"/>
  <anchor x="293" y="0" name="bottom"/>
  <outline>
    <contour>
      <point x="687" y="-94" type="curve" smooth="yes"/>
      <point x="687" y="500" type="line"/>
      <point x="671" y="500" type="line"/>
      <point x="671" y="-94" type="line" smooth="yes"/>
      <point x="671" y="-169"/>
      <point x="652" y="-201"/>
      <point x="609" y="-201" type="curve" smooth="yes"/>
      <point x="582" y="-201"/>
      <point x="572" y="-197"/>
      <point x="560" y="-186" type="curve"/>
      <point x="555" y="-200" type="line"/>
      <point x="572" y="-213"/>
      <point x="586" y="-215"/>
      <point x="609" y="-215" type="curve" smooth="yes"/>
      <point x="663" y="-215"/>
      <point x="687" y="-179"/>
    </contour>
    <contour>
      <point x="530" y="-184" type="curve"/>
      <point x="526" y="-170" type="line"/>
      <point x="515" y="-181"/>
      <point x="498" y="-188"/>
      <point x="475" y="-188" type="curve" smooth="yes"/>
      <point x="437" y="-188"/>
      <point x="414" y="-170"/>
      <point x="414" y="-134" type="curve" smooth="yes"/>
      <point x="414" y="-83"/>
      <point x="470" y="-39"/>
      <point x="574" y="0" type="curve"/>
      <point x="564" y="9" type="line"/>
      <point x="455" y="-30"/>
      <point x="399" y="-76"/>
      <point x="399" y="-134" type="curve" smooth="yes"/>
      <point x="399" y="-179"/>
      <point x="428" y="-202"/>
      <point x="475" y="-202" type="curve" smooth="yes"/>
      <point x="501" y="-202"/>
      <point x="518" y="-194"/>
    </contour>
    <contour>
      <point x="657" y="620" type="curve" smooth="yes"/>
      <point x="657" y="607"/>
      <point x="666" y="598"/>
      <point x="679" y="598" type="curve" smooth="yes"/>
      <point x="692" y="598"/>
      <point x="701" y="607"/>
      <point x="701" y="620" type="curve" smooth="yes"/>
      <point x="701" y="633"/>
      <point x="692" y="642"/>
      <point x="679" y="642" type="curve" smooth="yes"/>
      <point x="666" y="642"/>
      <point x="657" y="633"/>
    </contour>
    <component base="A"/>
  </outline>
</glyph>
<glyph name="Euro.tf" format="2">
  <advance width="604"/>
  <outline>
    <contour>
      <point x="40" y="263" type="line"/>
      <point x="40" y="248" type="line"/>
      <point x="366" y="248" type="line"/>
      <point x="375" y="263" type="line"/>
    </contour>
    <contour>
      <point x="40" y="413" type="line"/>
      <point x="40" y="398" type="line"/>
      <point x="403" y="398" type="line"/>
      <point x="412" y="413" type="line"/>
    </contour>
    <component base="euro.part.tf"/>
  </outline>
</glyph>
<glyph name="G.ss04" format="2">
  <advance width="656"/>
  <anchor x="343" y="660" name="top"/>
  <anchor x="430" y="0" name="ogonek"/>
  <anchor x="351" y="0" name="bottom"/>
  <anchor x="336" y="0" name="bottomC"/>
  <outline>
    <contour>
      <point x="616" y="294" type="curve" smooth="yes"/>
      <point x="616" y="311" type="line"/>
      <point x="353" y="311" type="line"/>
      <point x="353" y="297" type="line"/>
      <point x="607" y="297" type="line"/>
      <point x="600" y="305" type="line"/>
      <point x="600" y="300" type="line" smooth="yes"/>
      <point x="600" y="181"/>
      <point x="561" y="4"/>
      <point x="347" y="4" type="curve" smooth="yes"/>
      <point x="180" y="4"/>
      <point x="72" y="130"/>
      <point x="72" y="330" type="curve" smooth="yes"/>
      <point x="72" y="530"/>
      <point x="183" y="656"/>
      <point x="349" y="656" type="curve" smooth="yes"/>
      <point x="479" y="656"/>
      <point x="558" y="601"/>
      <point x="591" y="489" type="curve"/>
      <point x="605" y="496" type="line"/>
      <point x="572" y="612"/>
      <point x="488" y="670"/>
      <point x="349" y="670" type="curve" smooth="yes"/>
      <point x="173" y="670"/>
      <point x="56" y="539"/>
      <point x="56" y="330" type="curve" smooth="yes"/>
      <point x="56" y="121"/>
      <point x="170" y="-10"/>
      <point x="347" y="-10" type="curve" smooth="yes"/>
      <point x="553" y="-10"/>
      <point x="616" y="141"/>
    </contour>
  </outline>
</glyph>
<glyph name="IJ.ss05" format="2">
  <advance width="570"/>
  <outline>
    <contour>
      <point x="99" y="660" type="line"/>
      <point x="99" y="262" type="line"/>
      <point x="115" y="262" type="line"/>
      <point x="115" y="660" type="line"/>
    </contour>
    <contour>
      <point x="462" y="660" type="line"/>
      <point x="462" y="209" type="line" smooth="yes"/>
      <point x="462" y="84"/>
      <point x="400" y="4"/>
      <point x="282" y="4" type="curve" smooth="yes"/>
      <point x="162" y="4"/>
      <point x="111" y="61"/>
      <point x="111" y="163" type="curve"/>
      <point x="95" y="163" type="line"/>
      <point x="95" y="49"/>
      <point x="150" y="-10"/>
      <point x="282" y="-10" type="curve" smooth="yes"/>
      <point x="410" y="-10"/>
      <point x="478" y="75"/>
      <point x="478" y="209" type="curve" smooth="yes"/>
      <point x="478" y="660" type="line"/>
    </contour>
  </outline>
</glyph>
<glyph name="Osuperior" format="2">
  <advance width="436"/>
  <outline>
    <contour>
      <point x="37" y="531" type="curve" smooth="yes"/>
      <point x="37" y="407"/>
      <point x="108" y="327"/>
      <point x="218" y="327" type="curve" smooth="yes"/>
      <point x="328" y="327"/>
      <point x="399" y="407"/>
      <point x="399" y="531" type="curve" smooth="yes"/>
      <point x="399" y="655"/>
      <point x="328" y="735"/>
      <point x="218" y="735" type="curve" smooth="yes"/>
      <point x="108" y="735"/>
      <point x="37" y="655"/>
    </contour>
    <contour>
      <point x="383" y="531" type="curve" smooth="yes"/>
      <point x="383" y="415"/>
      <point x="318" y="341"/>
      <point x="218" y="341" type="curve" smooth="yes"/>
      <point x="118" y="341"/>
      <point x="53" y="415"/>
      <point x="53" y="531" type="curve" smooth="yes"/>
      <point x="53" y="647"/>
      <point x="118" y="721"/>
      <point x="218" y="721" type="curve" smooth="yes"/>
      <point x="318" y="721"/>
      <point x="383" y="647"/>
    </contour>
  </outline>
</glyph>
<glyph name="a.sc" format="2">
  <advance width="524"/>
  <anchor x="262" y="560" name="top"/>
  <anchor x="510" y="0" name="ogonek"/>
  <anchor x="262" y="0" name="bottom"/>
  <anchor x="510" y="0" name="bottomC"/>
  <outline>
    <contour>
      <point x="31" y="0" type="line"/>
      <point x="247" y="503" type="line"/>
      <point x="262" y="543" type="line"/>
      <point x="262" y="543" type="line"/>
      <point x="277" y="503" type="line"/>
      <point x="493" y="0" type="line"/>
      <point x="510" y="0" type="line"/>
      <point x="271" y="560" type="line"/>
      <point x="253" y="560" type="line"/>
      <point x="14" y="0" type="line"/>
    </contour>
    <contour>
      <point x="415" y="197" type="line"/>
      <point x="415" y="211" type="line"/>
      <point x="108" y="211" type="line"/>
      <point x="108" y="197" type="line"/>
    </contour>
  </outline>
</glyph>
<glyph name="acutecmb.cap" format="2">
  <anchor x="0" y="660" name="_top"/>
  <outline>
    <contour>
      <point x="-1" y="743" type="line"/>
      <point x="14" y="743" type="line"/>
      <point x="92" y="891" type="line"/>
      <point x="74" y="891" type="line"/>
    </contour>
  </outline>
</glyph>
<glyph name="adieresis.titl.sc" format="2">
  <advance width="523"/>
  <outline>
    <contour>
      <point x="192" y="543" type="curve" smooth="yes"/>
      <point x="192" y="556"/>
      <point x="183" y="565"/>
      <point x="170" y="565" type="curve" smooth="yes"/>
      <point x="157" y="565"/>
      <point x="148" y="556"/>
      <point x="148" y="543" type="curve" smooth="yes"/>
      <point x="148" y="530"/>
      <point x="157" y="521"/>
      <point x="170" y="521" type="curve" smooth="yes"/>
      <point x="183" y="521"/>
      <point x="192" y="530"/>
    </contour>
    <contour>
      <point x="374" y="543" type="curve" smooth="yes"/>
      <point x="374" y="556"/>
      <point x="365" y="565"/>
      <point x="352" y="565" type="curve" smooth="yes"/>
      <point x="339" y="565"/>
      <point x="330" y="556"/>
      <point x="330" y="543" type="curve" smooth="yes"/>
      <point x="330" y="530"/>
      <point x="339" y="521"/>
      <point x="352" y="521" type="curve" smooth="yes"/>
      <point x="365" y="521"/>
      <point x="374" y="530"/>
    </contour>
    <contour>
      <point x="30" y="0" type="line"/>
      <point x="246" y="503" type="line"/>
      <point x="261" y="543" type="line"/>
      <point x="261" y="543" type="line"/>
      <point x="276" y="503" type="line"/>
      <point x="492" y="0" type="line"/>
      <point x="509" y="0" type="line"/>
      <point x="270" y="560" type="line"/>
      <point x="252" y="560" type="line"/>
      <point x="13" y="0" type="line"/>
    </contour>
    <contour>
      <point x="414" y="197" type="line"/>
      <point x="414" y="211" type="line"/>
      <point x="107" y="211" type="line"/>
      <point x="107" y="197" type="line"/>
    </contour>
  </outline>
</glyph>
<glyph name="bar.case" format="2">
  <advance width="167"/>
  <outline>
    <contour>
      <point x="76" y="752" type="line"/>
      <point x="76" y="-97" type="line"/>
      <point x="91" y="-97" type="line"/>
      <point x="91" y="752" type="line"/>
    </contour>
  </outline>
</glyph>
<glyph name="blackDiamond.case" format="2">
  <advance width="660"/>
  <outline>
    <contour>
      <point x="615" y="330" type="line"/>
      <point x="330" y="615" type="line"/>
      <point x="45" y="330" type="line"/>
      <point x="330" y="45" type="line"/>
    </contour>
  </outline>
</glyph>
<glyph name="blackSmallSquare.case" format="2">
  <advance width="660"/>
  <outline>
    <contour>
      <point x="100" y="100" type="line"/>
      <point x="560" y="100" type="line"/>
      <point x="560" y="560" type="line"/>
      <point x="100" y="560" type="line"/>
    </contour>
  </outline>
</glyph>
<glyph name="commasuperior" format="2">
  <advance width="128"/>
  <outline>
    <contour>
      <point x="45" y="349" type="curve" smooth="yes"/>
      <point x="45" y="339"/>
      <point x="53" y="330"/>
      <point x="64" y="330" type="curve" smooth="yes"/>
      <point x="70" y="330"/>
      <point x="77" y="333"/>
      <point x="78" y="336" type="curve"/>
      <point x="79" y="336" type="line"/>
      <point x="85" y="314"/>
      <point x="69" y="280"/>
      <point x="46" y="269" type="curve"/>
      <point x="59" y="260" type="line"/>
      <point x="82" y="274"/>
      <point x="95" y="303"/>
      <point x="95" y="329" type="curve" smooth="yes"/>
      <point x="95" y="352"/>
      <point x="84" y="368"/>
      <point x="65" y="368" type="curve" smooth="yes"/>
      <point x="52" y="368"/>
      <point x="45" y="359"/>
    </contour>
  </outline>
</glyph>
<glyph name="eight.tf" format="2">
  <advance width="604"/>
  <outline>
    <contour>
      <point x="109" y="508" type="curve" smooth="yes"/>
      <point x="109" y="424"/>
      <point x="161" y="366"/>
      <point x="247" y="348" type="curve"/>
      <point x="247" y="347" type="line"/>
      <point x="148" y="330"/>
      <point x="81" y="261"/>
      <point x="81" y="169" type="curve" smooth="yes"/>
      <point x="81" y="64"/>
      <point x="172" y="-10"/>
      <point x="302" y="-10" type="curve" smooth="yes"/>
      <point x="431" y="-10"/>
      <point x="522" y="64"/>
      <point x="522" y="169" type="curve" smooth="yes"/>
      <point x="522" y="259"/>
      <point x="457" y="329"/>
      <point x="357" y="347" type="curve"/>
      <point x="357" y="348" type="line"/>
      <point x="442" y="366"/>
      <point x="494" y="424"/>
      <point x="494" y="508" type="curve" smooth="yes"/>
      <point x="494" y="606"/>
      <point x="418" y="670"/>
      <point x="302" y="670" type="curve" smooth="yes"/>
      <point x="184" y="670"/>
      <point x="109" y="606"/>
    </contour>
    <contour>
      <point x="478" y="508" type="curve" smooth="yes"/>
      <point x="478" y="417"/>
      <point x="408" y="355"/>
      <point x="302" y="355" type="curve" smooth="yes"/>
      <point x="195" y="355"/>
      <point x="125" y="417"/>
      <point x="125" y="508" type="curve" smooth="yes"/>
      <point x="125" y="598"/>
      <point x="195" y="656"/>
      <point x="302" y="656" type="curve" smooth="yes"/>
      <point x="408" y="656"/>
      <point x="478" y="598"/>
    </contour>
    <contour>
      <point x="97" y="169" type="curve" smooth="yes"/>
      <point x="97" y="268"/>
      <point x="181" y="339"/>
      <point x="302" y="339" type="curve" smooth="yes"/>
      <point x="422" y="339"/>
      <point x="506" y="268"/>
      <point x="506" y="169" type="curve" smooth="yes"/>
      <point x="506" y="72"/>
      <point x="422" y="4"/>
      <point x="302" y="4" type="curve" smooth="yes"/>
      <point x="181" y="4"/>
      <point x="97" y="72"/>
    </contour>
  </outline>
</glyph>
<glyph name="euro.part.tf" format="2">
  <advance width="604"/>
  <outline>
    <contour>
      <point x="120" y="330" type="curve" smooth="yes"/>
      <point x="120" y="117"/>
      <point x="211" y="-10"/>
      <point x="363" y="-10" type="curve" smooth="yes"/>
      <point x="451" y="-10"/>
      <point x="535" y="49"/>
      <point x="563" y="169" type="curve"/>
      <point x="549" y="176" type="line"/>
      <point x="523" y="61"/>
      <point x="446" y="4"/>
      <point x="363" y="4" type="curve" smooth="yes"/>
      <point x="221" y="4"/>
      <point x="136" y="126"/>
      <point x="136" y="330" type="curve" smooth="yes"/>
      <point x="136" y="534"/>
      <point x="220" y="656"/>
      <point x="362" y="656" type="curve" smooth="yes"/>
      <point x="454" y="656"/>
      <point x="515" y="609"/>
      <point x="544" y="518" type="curve"/>
      <point x="556" y="528" type="line"/>
      <point x="527" y="621"/>
      <point x="459" y="670"/>
      <point x="362" y="670" type="curve" smooth="yes"/>
      <point x="210" y="670"/>
      <point x="120" y="543"/>
    </contour>
  </outline>
</glyph>
<glyph name="f_t.liga" format="2">
  <advance width="609"/>
  <anchor x="500" y="0" name="bottom"/>
  <anchor x="527" y="767" name="topright"/>
  <anchor x="399" y="281" name="center"/>
  <outline>
    <contour>
      <point x="112" y="583" type="curve" smooth="yes"/>
      <point x="112" y="0" type="line"/>
      <point x="128" y="0" type="line"/>
      <point x="128" y="491" type="line"/>
      <point x="128" y="500" type="line"/>
      <point x="128" y="583" type="line" smooth="yes"/>
      <point x="128" y="669"/>
      <point x="172" y="721"/>
      <point x="245" y="721" type="curve" smooth="yes"/>
      <point x="277" y="721"/>
      <point x="297" y="713"/>
      <point x="315" y="692" type="curve"/>
      <point x="322" y="704" type="line"/>
      <point x="306" y="722"/>
      <point x="284" y="735"/>
      <point x="245" y="735" type="curve" smooth="yes"/>
      <point x="162" y="735"/>
      <point x="112" y="678"/>
    </contour>
    <contour>
      <point x="12" y="500" type="line"/>
      <point x="12" y="486" type="line"/>
      <point x="314" y="486" type="line"/>
      <point x="314" y="500" type="line"/>
    </contour>
    <contour>
      <point x="391" y="630" type="line"/>
      <point x="391" y="126" type="line" smooth="yes"/>
      <point x="391" y="37"/>
      <point x="430" y="-10"/>
      <point x="511" y="-10" type="curve" smooth="yes"/>
      <point x="551" y="-10"/>
      <point x="587" y="7"/>
      <point x="607" y="28" type="curve"/>
      <point x="599" y="41" type="line"/>
      <point x="575" y="15"/>
      <point x="546" y="4"/>
      <point x="511" y="4" type="curve" smooth="yes"/>
      <point x="439" y="4"/>
      <point x="407" y="46"/>
      <point x="407" y="126" type="curve" smooth="yes"/>
      <point x="407" y="635" type="line"/>
    </contour>
    <contour>
      <point x="291" y="500" type="line"/>
      <point x="291" y="486" type="line"/>
      <point x="600" y="486" type="line"/>
      <point x="600" y="500" type="line"/>
    </contour>
  </outline>
</glyph>
<glyph name="florin.tf" format="2">
  <advance width="604"/>
  <outline>
    <contour>
      <point x="333" y="593" type="curve" smooth="yes"/>
      <point x="228" y="14" type="line" smooth="yes"/>
      <point x="213" y="-70"/>
      <point x="167" y="-114"/>
      <point x="92" y="-114" type="curve" smooth="yes"/>
      <point x="62" y="-114"/>
      <point x="41" y="-110"/>
      <point x="25" y="-100" type="curve"/>
      <point x="19" y="-111" type="line"/>
      <point x="45" y="-124"/>
      <point x="62" y="-128"/>
      <point x="91" y="-128" type="curve" smooth="yes"/>
      <point x="176" y="-128"/>
      <point x="228" y="-80"/>
      <point x="245" y="14" type="curve" smooth="yes"/>
      <point x="350" y="594" type="line" smooth="yes"/>
      <point x="366" y="680"/>
      <point x="412" y="721"/>
      <point x="491" y="721" type="curve" smooth="yes"/>
      <point x="512" y="721"/>
      <point x="532" y="717"/>
      <point x="552" y="708" type="curve"/>
      <point x="554" y="722" type="line"/>
      <point x="530" y="732"/>
      <point x="512" y="735"/>
      <point x="482" y="735" type="curve" smooth="yes"/>
      <point x="398" y="735"/>
      <point x="350" y="689"/>
    </contour>
    <contour>
      <point x="121" y="400" type="line"/>
      <point x="121" y="386" type="line"/>
      <point x="523" y="386" type="line"/>
      <point x="523" y="400" type="line"/>
    </contour>
  </outline>
</glyph>
<glyph name="four.tf" format="2">
  <advance width="604"/>
  <outline>
    <contour>
      <point x="403" y="0" type="line"/>
      <point x="403" y="205" type="line"/>
      <point x="554" y="205" type="line"/>
      <point x="554" y="219" type="line"/>
      <point x="403" y="219" type="line"/>
      <point x="403" y="660" type="line"/>
      <point x="379" y="660" type="line"/>
      <point x="57" y="219" type="line"/>
      <point x="57" y="205" type="line"/>
      <point x="387" y="205" type="line"/>
      <point x="387" y="0" type="line"/>
    </contour>
    <contour>
      <point x="332" y="571" type="line" smooth="yes"/>
      <point x="350" y="595"/>
      <point x="368" y="620"/>
      <point x="386" y="645" type="curve"/>
      <point x="387" y="645" type="line"/>
      <point x="387" y="602"/>
      <point x="387" y="557"/>
      <point x="387" y="514" type="curve" smooth="yes"/>
      <point x="387" y="219" type="line"/>
      <point x="75" y="219" type="line"/>
    </contour>
  </outline>
</glyph>
<glyph name="g.sc" format="2">
  <advance width="601"/>
  <anchor x="309" y="560" name="top"/>
  <anchor x="371" y="0" name="ogonek"/>
  <anchor x="339" y="0" name="bottom"/>
  <anchor x="313" y="0" name="bottomC"/>
  <outline>
    <contour>
      <point x="52" y="280" type="curve" smooth="yes"/>
      <point x="52" y="103"/>
      <point x="152" y="-8"/>
      <point x="307" y="-8" type="curve" smooth="yes"/>
      <point x="454" y="-8"/>
      <point x="531" y="85"/>
      <point x="531" y="236" type="curve"/>
      <point x="525" y="247" type="line"/>
      <point x="525" y="143"/>
      <point x="479" y="6"/>
      <point x="307" y="6" type="curve" smooth="yes"/>
      <point x="162" y="6"/>
      <point x="68" y="111"/>
      <point x="68" y="280" type="curve" smooth="yes"/>
      <point x="68" y="448"/>
      <point x="172" y="554"/>
      <point x="314" y="554" type="curve" smooth="yes"/>
      <point x="426" y="554"/>
      <point x="497" y="508"/>
      <point x="526" y="414" type="curve"/>
      <point x="540" y="421" type="line"/>
      <point x="510" y="519"/>
      <point x="435" y="568"/>
      <point x="314" y="568" type="curve" smooth="yes"/>
      <point x="162" y="568"/>
      <point x="52" y="457"/>
    </contour>
    <contour>
      <point x="310" y="251" type="line"/>
      <point x="525" y="251" type="line"/>
      <point x="525" y="202" type="line"/>
      <point x="525" y="194" type="line"/>
      <point x="525" y="0" type="line"/>
      <point x="539" y="0" type="line"/>
      <point x="539" y="265" type="line"/>
      <point x="310" y="265" type="line"/>
    </contour>
  </outline>
</glyph>
<glyph name="g.sc.ss04" format="2">
  <advance width="585"/>
  <anchor x="305" y="560" name="top"/>
  <anchor x="371" y="0" name="ogonek"/>
  <anchor x="312" y="0" name="bottom"/>
  <anchor x="303" y="0" name="bottomC"/>
  <outline>
    <contour>
      <point x="546" y="249" type="curve" smooth="yes"/>
      <point x="546" y="265" type="line"/>
      <point x="314" y="265" type="line"/>
      <point x="314" y="251" type="line"/>
      <point x="537" y="251" type="line"/>
      <point x="530" y="258" type="line"/>
      <point x="530" y="253" type="line" smooth="yes"/>
      <point x="530" y="153"/>
      <point x="495" y="6"/>
      <point x="309" y="6" type="curve" smooth="yes"/>
      <point x="162" y="6"/>
      <point x="68" y="111"/>
      <point x="68" y="280" type="curve" smooth="yes"/>
      <point x="68" y="448"/>
      <point x="165" y="554"/>
      <point x="310" y="554" type="curve" smooth="yes"/>
      <point x="424" y="554"/>
      <point x="493" y="508"/>
      <point x="522" y="414" type="curve"/>
      <point x="536" y="421" type="line"/>
      <point x="506" y="519"/>
      <point x="433" y="568"/>
      <point x="310" y="568" type="curve" smooth="yes"/>
      <point x="155" y="568"/>
      <point x="52" y="457"/>
      <point x="52" y="280" type="curve" smooth="yes"/>
      <point x="52" y="103"/>
      <point x="152" y="-8"/>
      <point x="308" y="-8" type="curve" smooth="yes"/>
      <point x="489" y="-8"/>
      <point x="546" y="118"/>
    </contour>
  </outline>
</glyph>
<glyph name="g.ss01_j.liga" format="2">
  <advance width="753"/>
  <anchor x="282" y="500" name="top"/>
  <outline>
    <contour>
      <point x="484" y="499" type="line"/>
      <point x="484" y="328" type="line"/>
      <point x="484" y="324" type="line"/>
      <point x="484" y="7" type="line" smooth="yes"/>
      <point x="484" y="-123"/>
      <point x="405" y="-201"/>
      <point x="271" y="-201" type="curve" smooth="yes"/>
      <point x="166" y="-201"/>
      <point x="96" y="-157"/>
      <point x="83" y="-83" type="curve"/>
      <point x="67" y="-90" type="line"/>
      <point x="83" y="-168"/>
      <point x="160" y="-215"/>
      <point x="271" y="-215" type="curve" smooth="yes"/>
      <point x="415" y="-215"/>
      <point x="500" y="-132"/>
      <point x="500" y="8" type="curve" smooth="yes"/>
      <point x="500" y="397" type="line"/>
      <point x="500" y="499" type="line"/>
    </contour>
    <contour>
      <point x="51" y="250" type="curve" smooth="yes"/>
      <point x="51" y="87"/>
      <point x="137" y="-10"/>
      <point x="280" y="-10" type="curve" smooth="yes"/>
      <point x="410" y="-10"/>
      <point x="494" y="79"/>
      <point x="493" y="230" type="curve"/>
      <point x="484" y="246" type="line"/>
      <point x="484" y="95"/>
      <point x="404" y="4"/>
      <point x="283" y="4" type="curve" smooth="yes"/>
      <point x="148" y="4"/>
      <point x="68" y="95"/>
      <point x="68" y="250" type="curve" smooth="yes"/>
      <point x="68" y="405"/>
      <point x="148" y="496"/>
      <point x="283" y="496" type="curve" smooth="yes"/>
      <point x="405" y="496"/>
      <point x="485" y="404"/>
      <point x="484" y="253" type="curve"/>
      <point x="494" y="267" type="line"/>
      <point x="494" y="420"/>
      <point x="409" y="510"/>
      <point x="280" y="510" type="curve" smooth="yes"/>
      <point x="137" y="510"/>
      <point x="51" y="413"/>
    </contour>
    <contour>
      <point x="670" y="500" type="line"/>
      <point x="670" y="-64" type="line" smooth="yes"/>
      <point x="670" y="-147"/>
      <point x="624" y="-201"/>
      <point x="554" y="-201" type="curve" smooth="yes"/>
      <point x="530" y="-201"/>
      <point x="504" y="-194"/>
      <point x="488" y="-179" type="curve"/>
      <point x="483" y="-193" type="line"/>
      <point x="499" y="-207"/>
      <point x="526" y="-215"/>
      <point x="554" y="-215" type="curve" smooth="yes"/>
      <point x="634" y="-215"/>
      <point x="686" y="-156"/>
      <point x="686" y="-64" type="curve" smooth="yes"/>
      <point x="686" y="500" type="line"/>
    </contour>
    <contour>
      <point x="656" y="620" type="curve" smooth="yes"/>
      <point x="656" y="607"/>
      <point x="665" y="598"/>
      <point x="678" y="598" type="curve" smooth="yes"/>
      <point x="691" y="598"/>
      <point x="700" y="607"/>
      <point x="700" y="620" type="curve" smooth="yes"/>
      <point x="700" y="633"/>
      <point x="691" y="642"/>
      <point x="678" y="642" type="curve" smooth="yes"/>
      <point x="665" y="642"/>
      <point x="656" y="633"/>
    </contour>
  </outline>
</glyph>
<glyph name="hyphensuperior" format="2">
  <advance width="263"/>
  <outline>
    <contour>
      <point x="43" y="540" type="line"/>
      <point x="43" y="526" type="line"/>
      <point x="220" y="526" type="line"/>
      <point x="220" y="540" type="line"/>
    </contour>
  </outline>
</glyph>
<glyph name="indexring" format="2">
  <advance width="910"/>
  <anchor x="455" y="330" name="indexring"/>
  <outline>
    <contour>
      <point x="819" y="330" type="curve" smooth="yes"/>
      <point x="819" y="545"/>
      <point x="667" y="700"/>
      <point x="455" y="700" type="curve" smooth="yes"/>
      <point x="243" y="700"/>
      <point x="91" y="545"/>
      <point x="91" y="330" type="curve" smooth="yes"/>
      <point x="91" y="115"/>
      <point x="243" y="-40"/>
      <point x="455" y="-40" type="curve" smooth="yes"/>
      <point x="667" y="-40"/>
      <point x="819" y="115"/>
    </contour>
    <contour>
      <point x="107" y="330" type="curve" smooth="yes"/>
      <point x="107" y="537"/>
      <point x="253" y="686"/>
      <point x="455" y="686" type="curve" smooth="yes"/>
      <point x="657" y="686"/>
      <point x="803" y="537"/>
      <point x="803" y="330" type="curve" smooth="yes"/>
      <point x="803" y="123"/>
      <point x="657" y="-26"/>
      <point x="455" y="-26" type="curve" smooth="yes"/>
      <point x="253" y="-26"/>
      <point x="107" y="123"/>
    </contour>
  </outline>
</glyph>
<glyph name="jdotless.ogonek" format="2">
  <advance width="220"/>
  <anchor x="127" y="500" name="top"/>
  <anchor x="98" y="-204" name="ogonek"/>
  <anchor x="69" y="-210" name="bottom"/>
  <anchor x="69" y="-210" name="bottomC"/>
  <outline>
    <contour>
      <point x="119" y="500" type="line"/>
      <point x="119" y="-94" type="line" smooth="yes"/>
      <point x="119" y="-169"/>
      <point x="100" y="-201"/>
      <point x="57" y="-201" type="curve" smooth="yes"/>
      <point x="30" y="-201"/>
      <point x="20" y="-197"/>
      <point x="8" y="-186" type="curve"/>
      <point x="3" y="-200" type="line"/>
      <point x="20" y="-213"/>
      <point x="34" y="-215"/>
      <point x="57" y="-215" type="curve" smooth="yes"/>
      <point x="111" y="-215"/>
      <point x="135" y="-179"/>
      <point x="135" y="-94" type="curve" smooth="yes"/>
      <point x="135" y="500" type="line"/>
    </contour>
  </outline>
</glyph>
<glyph name="k.sc" format="2">
  <advance width="499"/>
  <anchor x="284" y="560" name="top"/>
  <anchor x="484" y="0" name="ogonek"/>
  <anchor x="279" y="0" name="bottom"/>
  <anchor x="484" y="0" name="bottomC"/>
  <outline>
    <contour>
      <point x="453" y="560" type="line"/>
      <point x="97" y="211" type="line"/>
      <point x="97" y="189" type="line"/>
      <point x="240" y="329" type="line"/>
      <point x="242" y="330" type="line"/>
      <point x="475" y="560" type="line"/>
    </contour>
    <contour>
      <point x="90" y="560" type="line"/>
      <point x="90" y="0" type="line"/>
      <point x="106" y="0" type="line"/>
      <point x="106" y="560" type="line"/>
    </contour>
    <contour>
      <point x="231" y="330" type="line"/>
      <point x="463" y="0" type="line"/>
      <point x="484" y="0" type="line"/>
      <point x="242" y="343" type="line"/>
    </contour>
  </outline>
</glyph>
<glyph name="l.ss02" format="2">
  <advance width="194"/>
  <anchor x="97" y="0" name="bottom"/>
  <anchor x="97" y="730" name="top"/>
  <anchor x="105" y="0" name="ogonek"/>
  <anchor x="212" y="730" name="topright"/>
  <anchor x="105" y="0" name="bottomC"/>
  <outline>
    <contour>
      <point x="89" y="730" type="line"/>
      <point x="89" y="0" type="line"/>
      <point x="105" y="0" type="line"/>
      <point x="105" y="730" type="line"/>
    </contour>
  </outline>
</glyph>
<glyph name="ogonek.A" format="2">
  <advance width="558"/>
  <anchor x="560" y="0" name="_ogonek"/>
  <outline>
    <contour>
      <point x="545" y="7" type="line"/>
      <point x="446" y="-32"/>
      <point x="413" y="-72"/>
      <point x="413" y="-124" type="curve" smooth="yes"/>
      <point x="413" y="-176"/>
      <point x="453" y="-202"/>
      <point x="501" y="-202" type="curve" smooth="yes"/>
      <point x="537" y="-202"/>
      <point x="557" y="-192"/>
      <point x="573" y="-181" type="curve"/>
      <point x="567" y="-168" type="line"/>
      <point x="553" y="-179"/>
      <point x="535" y="-188"/>
      <point x="501" y="-188" type="curve" smooth="yes"/>
      <point x="461" y="-188"/>
      <point x="428" y="-167"/>
      <point x="428" y="-124" type="curve" smooth="yes"/>
      <point x="428" y="-75"/>
      <point x="461" y="-38"/>
      <point x="560" y="0" type="curve"/>
    </contour>
  </outline>
</glyph>
<glyph name="one.osf" format="2">
  <advance width="316"/>
  <outline>
    <contour>
      <point x="224" y="560" type="line"/>
      <point x="208" y="560" type="line"/>
      <point x="208" y="533"/>
      <point x="208" y="495"/>
      <point x="208" y="468" type="curve" smooth="yes"/>
      <point x="208" y="0" type="line"/>
      <point x="224" y="0" type="line"/>
      <point x="224" y="418" type="line"/>
    </contour>
    <contour>
      <point x="224" y="560" type="curve"/>
      <point x="208" y="560" type="line"/>
      <point x="174" y="489"/>
      <point x="99" y="439"/>
      <point x="28" y="413" type="curve"/>
      <point x="35" y="401" type="line"/>
      <point x="110" y="428"/>
      <point x="190" y="483"/>
    </contour>
  </outline>
</glyph>
<glyph name="one.tosf" format="2">
  <advance width="604"/>
  <outline>
    <contour>
      <point x="537" y="0" type="line"/>
      <point x="537" y="14" type="line"/>
      <point x="111" y="14" type="line"/>
      <point x="111" y="0" type="line"/>
    </contour>
    <contour>
      <point x="343" y="560" type="line"/>
      <point x="327" y="560" type="line"/>
      <point x="327" y="523"/>
      <point x="327" y="485"/>
      <point x="327" y="448" type="curve" smooth="yes"/>
      <point x="327" y="0" type="line"/>
      <point x="343" y="0" type="line"/>
      <point x="343" y="418" type="line"/>
    </contour>
    <contour>
      <point x="343" y="560" type="curve"/>
      <point x="327" y="560" type="line"/>
      <point x="290" y="491"/>
      <point x="190" y="433"/>
      <point x="119" y="407" type="curve"/>
      <point x="125" y="394" type="line"/>
      <point x="202" y="420"/>
      <point x="307" y="483"/>
    </contour>
  </outline>
</glyph>
<glyph name="seven.osf" format="2">
  <advance width="494"/>
  <outline>
    <contour>
      <point x="22" y="546" type="line"/>
      <point x="475" y="546" type="line"/>
      <point x="476" y="555" type="line"/>
      <point x="301" y="373"/>
      <point x="221" y="154"/>
      <point x="200" y="-100" type="curve"/>
      <point x="217" y="-100" type="line"/>
      <point x="238" y="165"/>
      <point x="324" y="373"/>
      <point x="485" y="546" type="curve"/>
      <point x="485" y="560" type="line"/>
      <point x="22" y="560" type="line"/>
    </contour>
  </outline>
</glyph>
<glyph name="seven.sc" format="2">
  <advance width="442"/>
  <outline>
    <contour>
      <point x="23" y="546" type="line"/>
      <point x="421" y="546" type="line"/>
      <point x="422" y="554" type="line"/>
      <point x="268" y="400"/>
      <point x="197" y="215"/>
      <point x="179" y="0" type="curve"/>
      <point x="196" y="0" type="line"/>
      <point x="214" y="224"/>
      <point x="289" y="399"/>
      <point x="431" y="546" type="curve"/>
      <point x="431" y="560" type="line"/>
      <point x="23" y="560" type="line"/>
    </contour>
  </outline>
</glyph>
<glyph name="seven.tf" format="2">
  <advance width="604"/>
  <outline>
    <contour>
      <point x="61" y="646" type="line"/>
      <point x="561" y="646" type="line"/>
      <point x="558" y="650" type="line"/>
      <point x="368" y="466"/>
      <point x="279" y="254"/>
      <point x="264" y="0" type="curve"/>
      <point x="281" y="0" type="line"/>
      <point x="296" y="265"/>
      <point x="393" y="473"/>
      <point x="574" y="646" type="curve"/>
      <point x="574" y="660" type="line"/>
      <point x="61" y="660" type="line"/>
    </contour>
  </outline>
</glyph>
<glyph name="six.osf" format="2">
  <advance width="540"/>
  <outline>
    <contour>
      <point x="55" y="330" type="curve" smooth="yes"/>
      <point x="55" y="107"/>
      <point x="132" y="-10"/>
      <point x="283" y="-10" type="curve" smooth="yes"/>
      <point x="410" y="-10"/>
      <point x="491" y="69"/>
      <point x="491" y="192" type="curve" smooth="yes"/>
      <point x="491" y="313"/>
      <point x="416" y="395"/>
      <point x="287" y="395" type="curve" smooth="yes"/>
      <point x="182" y="395"/>
      <point x="77" y="318"/>
      <point x="82" y="194" type="curve"/>
      <point x="80" y="194" type="line"/>
      <point x="74" y="233"/>
      <point x="70" y="277"/>
      <point x="70" y="317" type="curve" smooth="yes"/>
      <point x="70" y="485"/>
      <point x="129" y="656"/>
      <point x="303" y="656" type="curve" smooth="yes"/>
      <point x="391" y="656"/>
      <point x="442" y="607"/>
      <point x="461" y="543" type="curve"/>
      <point x="476" y="550" type="line"/>
      <point x="453" y="618"/>
      <point x="400" y="670"/>
      <point x="303" y="670" type="curve" smooth="yes"/>
      <point x="161" y="670"/>
      <point x="55" y="558"/>
    </contour>
    <contour>
      <point x="475" y="194" type="curve" smooth="yes"/>
      <point x="475" y="80"/>
      <point x="401" y="4"/>
      <point x="282" y="4" type="curve" smooth="yes"/>
      <point x="171" y="4"/>
      <point x="95" y="86"/>
      <point x="95" y="194" type="curve" smooth="yes"/>
      <point x="95" y="284"/>
      <point x="171" y="381"/>
      <point x="287" y="381" type="curve" smooth="yes"/>
      <point x="401" y="381"/>
      <point x="475" y="304"/>
    </contour>
  </outline>
</glyph>
<glyph name="six.sc" format="2">
  <advance width="483"/>
  <outline>
    <contour>
      <point x="437" y="163" type="curve" smooth="yes"/>
      <point x="437" y="266"/>
      <point x="371" y="335"/>
      <point x="257" y="335" type="curve" smooth="yes"/>
      <point x="165" y="335"/>
      <point x="79" y="273"/>
      <point x="76" y="171" type="curve"/>
      <point x="75" y="171" type="line"/>
      <point x="70" y="202"/>
      <point x="67" y="236"/>
      <point x="67" y="275" type="curve" smooth="yes"/>
      <point x="67" y="411"/>
      <point x="119" y="554"/>
      <point x="271" y="554" type="curve" smooth="yes"/>
      <point x="348" y="554"/>
      <point x="392" y="513"/>
      <point x="409" y="459" type="curve"/>
      <point x="424" y="466" type="line"/>
      <point x="403" y="524"/>
      <point x="356" y="568"/>
      <point x="271" y="568" type="curve" smooth="yes"/>
      <point x="145" y="568"/>
      <point x="52" y="473"/>
      <point x="52" y="275" type="curve" smooth="yes"/>
      <point x="52" y="91"/>
      <point x="120" y="-8"/>
      <point x="253" y="-8" type="curve" smooth="yes"/>
      <point x="365" y="-8"/>
      <point x="437" y="59"/>
    </contour>
    <contour>
      <point x="89" y="165" type="curve" smooth="yes"/>
      <point x="89" y="241"/>
      <point x="155" y="321"/>
      <point x="257" y="321" type="curve" smooth="yes"/>
      <point x="356" y="321"/>
      <point x="421" y="257"/>
      <point x="421" y="165" type="curve" smooth="yes"/>
      <point x="421" y="69"/>
      <point x="356" y="6"/>
      <point x="252" y="6" type="curve" smooth="yes"/>
      <point x="155" y="6"/>
      <point x="89" y="74"/>
    </contour>
  </outline>
</glyph>
<glyph name="u.sc" format="2">
  <advance width="605"/>
  <anchor x="303" y="560" name="top"/>
  <anchor x="388" y="7" name="ogonek"/>
  <anchor x="303" y="0" name="bottom"/>
  <anchor x="303" y="0" name="bottomC"/>
  <outline>
    <contour>
      <point x="506" y="560" type="line"/>
      <point x="506" y="200" type="line" smooth="yes"/>
      <point x="506" y="76"/>
      <point x="430" y="6"/>
      <point x="303" y="6" type="curve" smooth="yes"/>
      <point x="175" y="6"/>
      <point x="99" y="76"/>
      <point x="99" y="200" type="curve" smooth="yes"/>
      <point x="99" y="560" type="line"/>
      <point x="83" y="560" type="line"/>
      <point x="83" y="200" type="line" smooth="yes"/>
      <point x="83" y="66"/>
      <point x="165" y="-8"/>
      <point x="303" y="-8" type="curve" smooth="yes"/>
      <point x="440" y="-8"/>
      <point x="522" y="66"/>
      <point x="522" y="200" type="curve" smooth="yes"/>
      <point x="522" y="560" type="line"/>
    </contour>
  </outline>
</glyph>
<glyph name="uni0123.ss01" format="2">
  <advance width="585"/>
  <anchor x="274" y="-210" name="bottomC"/>
  <anchor x="282" y="500" name="top"/>
  <anchor x="392" y="-189" name="ogonek"/>
  <anchor x="284" y="-210" name="bottom"/>
  <outline>
    <contour>
      <point x="335" y="778" type="line"/>
      <point x="275" y="587" type="line"/>
      <point x="293" y="587" type="line"/>
      <point x="348" y="778" type="line"/>
    </contour>
    <component base="g.ss01"/>
  </outline>
</glyph>
<glyph name="uni20BD.tf" format="2">
  <advance width="604"/>
  <outline>
    <contour>
      <point x="161" y="660" type="line"/>
      <point x="161" y="646" type="line"/>
      <point x="325" y="646" type="line" smooth="yes"/>
      <point x="450" y="646"/>
      <point x="524" y="582"/>
      <point x="524" y="475" type="curve" smooth="yes"/>
      <point x="524" y="368"/>
      <point x="450" y="305"/>
      <point x="325" y="305" type="curve" smooth="yes"/>
      <point x="51" y="305" type="line"/>
      <point x="51" y="291" type="line"/>
      <point x="325" y="291" type="line" smooth="yes"/>
      <point x="460" y="291"/>
      <point x="540" y="359"/>
      <point x="540" y="475" type="curve" smooth="yes"/>
      <point x="540" y="591"/>
      <point x="460" y="660"/>
      <point x="325" y="660" type="curve" smooth="yes"/>
    </contour>
    <contour>
      <point x="153" y="660" type="line"/>
      <point x="153" y="0" type="line"/>
      <point x="169" y="0" type="line"/>
      <point x="169" y="660" type="line"/>
    </contour>
    <contour>
      <point x="375" y="192" type="line"/>
      <point x="51" y="192" type="line"/>
      <point x="51" y="178" type="line"/>
      <point x="375" y="178" type="line"/>
    </contour>
  </outline>
</glyph>
<glyph name="whiteSmallSquare.case" format="2">
  <advance width="660"/>
  <outline>
    <contour>
      <point x="556" y="104" type="line"/>
      <point x="556" y="556" type="line"/>
      <point x="104" y="556" type="line"/>
      <point x="104" y="104" type="line"/>
    </contour>
    <contour>
      <point x="120" y="541" type="line"/>
      <point x="540" y="541" type="line"/>
      <point x="540" y="119" type="line"/>
      <point x="120" y="119" type="line"/>
    </contour>
  </outline>
</glyph>
<glyph name="zero.osf" format="2">
  <advance width="570"/>
  <outline>
    <contour>
      <point x="55" y="280" type="curve" smooth="yes"/>
      <point x="55" y="93"/>
      <point x="137" y="-10"/>
      <point x="285" y="-10" type="curve" smooth="yes"/>
      <point x="433" y="-10"/>
      <point x="515" y="93"/>
      <point x="515" y="280" type="curve" smooth="yes"/>
      <point x="515" y="467"/>
      <point x="433" y="570"/>
      <point x="285" y="570" type="curve" smooth="yes"/>
      <point x="137" y="570"/>
      <point x="55" y="467"/>
    </contour>
    <contour>
      <point x="499" y="280" type="curve" smooth="yes"/>
      <point x="499" y="101"/>
      <point x="423" y="4"/>
      <point x="285" y="4" type="curve" smooth="yes"/>
      <point x="147" y="4"/>
      <point x="71" y="101"/>
      <point x="71" y="280" type="curve" smooth="yes"/>
      <point x="71" y="459"/>
      <point x="147" y="556"/>
      <point x="285" y="556" type="curve" smooth="yes"/>
      <point x="423" y="556"/>
      <point x="499" y="459"/>
    </contour>
  </outline>
</glyph>
<glyph name="zero.tosf" format="2">
  <advance width="604"/>
  <outline>
    <contour>
      <point x="72" y="280" type="curve" smooth="yes"/>
      <point x="72" y="93"/>
      <point x="154" y="-10"/>
      <point x="302" y="-10" type="curve" smooth="yes"/>
      <point x="450" y="-10"/>
      <point x="532" y="93"/>
      <point x="532" y="280" type="curve" smooth="yes"/>
      <point x="532" y="467"/>
      <point x="450" y="570"/>
      <point x="302" y="570" type="curve" smooth="yes"/>
      <point x="154" y="570"/>
      <point x="72" y="467"/>
    </contour>
    <contour>
      <point x="516" y="280" type="curve" smooth="yes"/>
      <point x="516" y="101"/>
      <point x="440" y="4"/>
      <point x="302" y="4" type="curve" smooth="yes"/>
      <point x="164" y="4"/>
      <point x="88" y="101"/>
      <point x="88" y="280" type="curve" smooth="yes"/>
      <point x="88" y="459"/>
      <point x="164" y="556"/>
      <point x="302" y="556" type="curve" smooth="yes"/>
      <point x="440" y="556"/>
      <point x="516" y="459"/>
    </contour>
  </outline>
</glyph>
